<svg xmlns="http://www.w3.org/2000/svg" viewBox="0 0 387.16 532.28"><defs><style>.cls-1{fill:#107cc0;}</style></defs><g id="Layer_2" data-name="Layer 2"><g id="Layer_1-2" data-name="Layer 1"><path class="cls-1" d="M193.62,532.28a9.92,9.92,0,0,1-6.79-2.66C181.14,524.37,47.05,369.83,9.89,254.79h0A199,199,0,0,1,0,193.56,194.29,194.29,0,0,1,61.18,52.36c39.45-37,91-55.43,145.24-51.94,95.85,6.17,173.35,83.07,180.25,178.89a198.58,198.58,0,0,1-8,71.16c-29.86,100.22-172,272.87-178,278.89A10,10,0,0,1,193.62,532.28ZM28.93,248.65c30.84,95.4,136.15,232.1,164.43,259.55,29-30,141.3-180.14,166.12-263.44a178.42,178.42,0,0,0,7.21-64C360.5,94.88,291.05,25.94,205.14,20.42,156.51,17.3,110.24,33.83,74.87,67A171.87,171.87,0,0,0,20,193.59a179.46,179.46,0,0,0,8.92,55.06Z"/><path class="cls-1" d="M193.6,290A96.39,96.39,0,1,1,290,193.58,96.48,96.48,0,0,1,193.6,290Zm0-172.74A76.36,76.36,0,1,0,270,193.58,76.45,76.45,0,0,0,193.6,117.22Z"/></g></g></svg>